<!-- Generated by IcoMoon.io -->
<svg version="1.1" xmlns="http://www.w3.org/2000/svg" width="32" height="32" viewBox="0 0 32 32">
<title>call_icon</title>
<path stroke-linejoin="round" stroke-linecap="round" stroke-miterlimit="4" stroke-width="1.5" d="M19.925 5c3.457 0.95 6.125 3.618 7.058 7.005l0.017 0.070"></path>
<path stroke-linejoin="round" stroke-linecap="round" stroke-miterlimit="4" stroke-width="1.5" d="M18.887 8.863c2.080 0.565 3.685 2.17 4.24 4.208l0.010 0.042"></path>
<path stroke-linejoin="round" stroke-linecap="round" stroke-miterlimit="4" stroke-width="1.5" d="M11.563 15.6c1.049 2.134 2.738 3.818 4.813 4.835l0.062 0.027c0.125 0.061 0.272 0.096 0.428 0.096 0.209 0 0.403-0.064 0.563-0.173l-0.003 0.002 3.125-2.087c0.155-0.107 0.347-0.17 0.554-0.17 0.143 0 0.279 0.030 0.402 0.085l-0.006-0.003 5.85 2.512c0.36 0.153 0.608 0.503 0.608 0.912 0 0.044-0.003 0.088-0.009 0.131l0.001-0.005c-0.391 2.969-2.906 5.237-5.95 5.238h-0c-9.389 0-17-7.611-17-17v0c0.001-3.044 2.269-5.559 5.207-5.947l0.030-0.003c0.038-0.005 0.081-0.008 0.126-0.008 0.408 0 0.759 0.248 0.909 0.602l0.002 0.006 2.513 5.862c0.052 0.117 0.083 0.254 0.083 0.398 0 0.2-0.059 0.387-0.16 0.543l0.002-0.004-2.088 3.175c-0.101 0.153-0.16 0.341-0.16 0.543 0 0.157 0.036 0.305 0.101 0.438l-0.003-0.006z"></path>
</svg>
