<!-- Generated by IcoMoon.io -->
<svg version="1.1" xmlns="http://www.w3.org/2000/svg" width="32" height="32" viewBox="0 0 32 32">
<title>tag_icon</title>
<path d="M8.354 14.665c-0.209-0.209-0.546-0.209-0.754 0l-4.526 4.526c-0.209 0.209-0.209 0.546 0 0.754 0.104 0.104 0.241 0.156 0.377 0.156s0.273-0.052 0.377-0.156l4.526-4.526c0.209-0.208 0.209-0.546 0-0.754z"></path>
<path d="M6.468 18.813c0.104 0.104 0.241 0.156 0.377 0.156s0.273-0.052 0.377-0.156l2.263-2.263c0.209-0.209 0.209-0.546 0-0.754s-0.546-0.209-0.754 0l-2.263 2.263c-0.208 0.209-0.208 0.546 0 0.754z"></path>
<path d="M10.994 17.305c-0.209-0.209-0.546-0.209-0.754 0l-2.263 2.262c-0.209 0.209-0.209 0.546 0 0.754 0.104 0.104 0.241 0.156 0.377 0.156s0.273-0.052 0.377-0.156l2.263-2.262c0.208-0.208 0.208-0.546 0-0.754z"></path>
<path d="M9.109 21.453c0.104 0.104 0.241 0.156 0.377 0.156s0.273-0.052 0.377-0.156l2.263-2.262c0.209-0.209 0.209-0.546 0-0.754s-0.546-0.209-0.754 0l-2.263 2.262c-0.209 0.208-0.209 0.546 0 0.754z"></path>
<path d="M10.994 23.339c0.104 0.104 0.241 0.156 0.377 0.156s0.273-0.052 0.377-0.156l2.263-2.263c0.209-0.209 0.209-0.546 0-0.754s-0.546-0.209-0.754 0l-2.263 2.263c-0.209 0.208-0.209 0.546 0 0.754z"></path>
<path d="M12.125 24.471c0.104 0.104 0.241 0.156 0.377 0.156s0.273-0.052 0.377-0.156l2.263-2.263c0.209-0.209 0.209-0.546 0-0.754s-0.546-0.209-0.754 0l-2.263 2.263c-0.208 0.208-0.208 0.546 0 0.754z"></path>
<path d="M13.257 25.602c0.104 0.104 0.241 0.156 0.377 0.156s0.273-0.052 0.377-0.156l2.263-2.262c0.209-0.209 0.209-0.546 0-0.754s-0.546-0.209-0.754 0l-2.263 2.262c-0.208 0.209-0.208 0.546 0 0.754z"></path>
<path d="M16.651 23.716l-4.526 4.526c-0.209 0.209-0.209 0.546 0 0.754 0.104 0.104 0.241 0.156 0.377 0.156s0.273-0.052 0.377-0.156l4.526-4.526c0.209-0.209 0.209-0.546 0-0.754s-0.546-0.209-0.754 0z"></path>
<path d="M31.578 0.156c-0.209-0.209-0.546-0.209-0.754 0l-1.978 1.977h-12.418l-15.611 15.74c-0.356 0.355-0.551 0.828-0.551 1.331s0.196 0.976 0.551 1.331l10.916 10.916c0.366 0.366 0.847 0.549 1.329 0.549 0.483 0 0.967-0.185 1.338-0.555l15.201-15.612v-12.946l1.977-1.977c0.209-0.209 0.209-0.546 0.001-0.754zM28.534 15.4l-14.894 15.296c-0.317 0.318-0.835 0.318-1.153 0l-10.916-10.916c-0.154-0.154-0.239-0.359-0.239-0.577s0.085-0.422 0.241-0.578l15.3-15.426h10.907l-2.578 2.578c-0.422-0.279-0.926-0.444-1.468-0.444-1.47 0-2.667 1.196-2.667 2.667s1.196 2.667 2.667 2.667 2.667-1.196 2.667-2.667c0-0.542-0.165-1.046-0.444-1.468l2.578-2.578v11.446zM25.334 8c0 0.882-0.718 1.6-1.6 1.6s-1.6-0.718-1.6-1.6 0.718-1.6 1.6-1.6c0.246 0 0.477 0.061 0.685 0.161l-1.062 1.062c-0.209 0.209-0.209 0.546 0 0.754 0.104 0.104 0.241 0.156 0.377 0.156s0.273-0.052 0.377-0.156l1.062-1.062c0.1 0.209 0.161 0.439 0.161 0.685z"></path>
<path d="M4.96 19.568l-0.377 0.377c-0.209 0.209-0.209 0.546 0 0.754 0.104 0.104 0.241 0.156 0.377 0.156s0.273-0.052 0.377-0.156l0.377-0.377c0.209-0.209 0.209-0.546 0-0.754s-0.546-0.209-0.754 0z"></path>
<path d="M7.223 21.076c-0.209-0.209-0.546-0.209-0.754 0l-0.377 0.377c-0.209 0.209-0.209 0.546 0 0.754 0.104 0.104 0.241 0.156 0.377 0.156s0.273-0.052 0.377-0.156l0.377-0.377c0.208-0.209 0.208-0.546 0-0.754z"></path>
<path d="M7.6 22.208l-0.377 0.377c-0.209 0.209-0.209 0.546 0 0.754 0.104 0.104 0.241 0.156 0.377 0.156s0.273-0.052 0.377-0.156l0.377-0.377c0.209-0.209 0.209-0.546 0-0.754s-0.546-0.209-0.754 0z"></path>
<path d="M10.24 24.093c-0.209-0.209-0.546-0.209-0.754 0l-0.377 0.377c-0.209 0.209-0.209 0.546 0 0.754 0.104 0.104 0.241 0.156 0.377 0.156s0.273-0.052 0.377-0.156l0.377-0.377c0.208-0.209 0.208-0.546 0-0.754z"></path>
<path d="M11.371 25.225c-0.209-0.209-0.546-0.209-0.754 0l-0.377 0.377c-0.209 0.209-0.209 0.546 0 0.754 0.104 0.104 0.241 0.156 0.377 0.156s0.273-0.052 0.377-0.156l0.377-0.377c0.208-0.209 0.208-0.546 0-0.754z"></path>
<path d="M12.503 27.11c0.208-0.209 0.208-0.546 0-0.754s-0.546-0.209-0.755 0l-0.378 0.378c-0.208 0.209-0.208 0.546 0 0.754 0.104 0.104 0.241 0.156 0.377 0.156s0.273-0.052 0.378-0.156l0.378-0.378z"></path>
</svg>
