<svg class="animate" width="231" height="50" viewBox="0 0 231 50" fill="none" xmlns="http://www.w3.org/2000/svg">
          <path d="M83.8694 16.4062L81.7095 9.00735C81.5716 8.40992 81.2959 7.85845 80.8363 7.39889C80.3767 7.12316 79.7793 6.98529 79.2279 7.03124H78.5845L78.6304 6.02022L84.4668 4.31985L84.9264 4.64154L84.7426 5.23897C84.5128 5.9283 84.3749 6.6636 84.3749 7.44485C84.4209 8.36397 84.5587 9.23713 84.8804 10.1103L86.5808 15.8548C86.6727 16.4522 86.9484 16.9577 87.3621 17.3713C87.8216 17.6471 88.3731 17.739 88.8786 17.739H89.476L89.4301 18.6581L82.8584 20.5882L82.2609 19.761L82.8124 19.3934C83.3179 19.1176 83.7315 18.704 83.9613 18.1985C84.1451 17.6471 84.0992 17.0037 83.8694 16.4062ZM94.8069 15.0276C95.3124 15.4871 95.726 15.6709 96.0477 15.5331C96.4154 15.3952 96.783 15.1654 97.0128 14.8437L97.7021 15.4871C97.2885 16.3603 96.5073 17.0037 95.6341 17.2794C94.8988 17.5551 94.0716 17.5092 93.3363 17.2335C92.5091 16.8658 91.7738 16.3603 91.1764 15.7169L88.1433 12.9136C87.6837 12.454 87.0863 12.1783 86.397 12.1323C86.2591 12.0864 86.1672 11.9945 86.1672 11.8566C86.0293 11.443 86.1672 11.1673 86.4889 11.0754C86.6727 11.0294 86.8565 10.9834 87.0404 10.9375L88.3731 7.12316C88.6029 6.57169 88.6948 5.97426 88.5569 5.37683C88.465 4.96323 88.2352 4.59558 88.0054 4.27389L87.6378 3.86029L88.0054 3.26286L92.7389 1.88419L93.3363 2.71139L92.7848 3.03308C92.0036 3.49264 91.4062 4.22794 91.1304 5.1011L89.1543 10.7537C90.0734 10.8915 90.9007 11.3511 91.4521 12.0404L94.8069 15.0276Z" fill="#89774C"></path>
          <path d="M104.044 16.2224C102.527 16.3603 101.057 15.7629 100.046 14.614C98.897 13.4191 98.2076 11.5809 97.9778 9.09927C97.7481 6.61765 98.2995 4.54964 99.5863 2.89522C100.873 1.24081 102.711 0.321695 105.147 0.137871C106.204 0.0919154 107.261 0.137871 108.272 0.229783C109.697 0.367651 110.662 0.413606 111.259 0.413606L111.627 0.781254L111.305 1.37868C111.075 1.74633 110.983 2.15993 111.029 2.61949L111.857 12.546C111.811 13.0055 112.178 13.3732 112.592 13.4191C112.684 13.4191 112.73 13.4191 112.822 13.4191C113.373 13.3732 113.879 13.0974 114.292 12.7298L114.936 13.4651C113.879 14.8438 112.822 15.579 111.719 15.671C111.029 15.8088 110.34 15.579 109.88 15.0735C109.467 14.614 109.237 13.7868 109.145 12.6379C107.812 14.7978 106.112 16.0386 104.044 16.2224ZM101.976 3.67647C101.241 4.82537 100.965 6.38787 101.149 8.36397C101.333 10.3401 101.746 11.7188 102.482 12.5919C103.079 13.3732 104.09 13.8327 105.055 13.7408C106.755 13.6029 108.088 12.546 109.007 10.6158L108.318 2.38971C107.399 1.83824 106.342 1.60846 105.285 1.70037C103.906 1.79228 102.665 2.52758 101.976 3.67647Z" fill="#89774C"></path>
          <path d="M124.403 15.7169L116.177 14.7978L115.947 13.7868L116.59 13.6949C117.142 13.6949 117.693 13.4651 118.107 13.0974C118.474 12.546 118.658 11.9485 118.658 11.3052L119.623 2.52758C119.669 2.06802 119.485 1.83824 119.072 1.79228L117.417 1.60846L117.188 0.551475C118.336 0.275739 119.485 0.137872 120.634 0.0459599C121.967 -0.0459518 123.346 -0.0459519 124.678 0.0919158C129.504 0.643386 131.756 2.2978 131.434 5.05515C131.296 6.52574 130.331 7.76655 128.952 8.27206C130.974 9.09927 131.893 10.432 131.71 12.1783C131.434 15.0735 128.998 16.2224 124.403 15.7169ZM125.046 8.77758C124.495 8.73162 123.989 8.59375 123.484 8.36397C123.07 8.1342 122.886 7.85846 122.932 7.53677C122.978 7.21508 123.116 7.07721 123.392 7.07721C123.392 7.07721 123.575 7.12317 123.851 7.21508C125.046 7.62868 126.287 7.53677 127.39 6.93934C128.079 6.47978 128.493 5.74449 128.539 4.96324C128.677 4.13603 128.401 3.35478 127.803 2.75736C127.206 2.20589 126.195 1.83824 124.724 1.65442C123.3 1.47059 122.518 1.83824 122.427 2.66545L121.599 10.1563C121.416 11.8107 121.737 12.8677 122.564 13.4191C123.254 13.8787 123.989 14.1085 124.816 14.2004C125.689 14.2923 126.563 14.1544 127.344 13.7408C128.079 13.3732 128.585 12.6379 128.677 11.8107C128.814 11.0294 128.539 10.2482 127.941 9.74265C127.206 9.14522 126.333 8.82353 125.414 8.73162L125.046 8.77758Z" fill="#89774C"></path>
          <path d="M138.695 19.0717C137.224 18.6121 136.075 17.5092 135.57 16.0386C134.972 14.4761 135.018 12.5 135.8 10.1563C136.535 7.76654 137.868 6.06618 139.66 5.05515C141.498 4.04412 143.566 3.86029 145.864 4.59559C146.875 4.96324 147.794 5.37684 148.713 5.88235C149.954 6.52574 150.873 6.93934 151.425 7.16912L151.609 7.62868L151.103 8.04228C150.781 8.31802 150.506 8.63971 150.368 9.05331L147.335 18.5662C147.151 18.9798 147.289 19.4853 147.702 19.6691C147.794 19.7151 147.84 19.7151 147.932 19.761C148.484 19.8989 149.035 19.8989 149.54 19.7151L149.862 20.6342C148.392 21.5074 147.105 21.7831 146.048 21.4614C145.358 21.3235 144.807 20.818 144.577 20.1746C144.393 19.5772 144.439 18.75 144.807 17.6471C142.693 19.2096 140.671 19.6691 138.695 19.0717ZM141.544 6.70956C140.441 7.53677 139.568 8.86949 138.971 10.7077C138.373 12.5919 138.235 14.0625 138.603 15.1195C138.879 16.0846 139.614 16.8658 140.533 17.1875C142.142 17.693 143.75 17.2335 145.358 15.8088L147.84 7.95037C147.197 7.12316 146.278 6.47978 145.267 6.15809C144.026 5.69853 142.601 5.92831 141.544 6.70956Z" fill="#89774C"></path>
          <path d="M158.823 12.8217L176.287 13.9706L158.823 15.1195V12.8217Z" fill="#89774C"></path>
          <path d="M73.4836 13.8327L55.9744 12.9136L73.4376 11.5349L73.4836 13.8327Z" fill="#89774C"></path>
          <path d="M11.7647 37.8676V35.9835C10.8915 35.7996 9.97243 35.7537 9.09926 35.7537C7.72059 35.7077 6.38787 36.2592 5.46875 37.3162C4.50368 38.4191 3.99816 39.8897 4.09007 41.3603C4.04412 42.8309 4.54963 44.2555 5.46875 45.3585C6.38787 46.3695 7.72059 46.9669 9.09926 46.921C10.8915 46.921 12.1783 46.3695 13.0515 45.3125L15.3493 47.6103C13.6949 49.2188 11.5349 50.046 8.86948 50.046C6.25 50.046 4.13603 49.2647 2.48162 47.6563C0.827206 45.9559 0 43.8879 0 41.3143C0 38.7408 0.827206 36.6728 2.48162 35.0643C4.13603 33.4099 6.25 32.6287 8.86948 32.6287C11.0294 32.5368 13.1434 33.0882 15.0276 34.1452V37.8217H11.7647" fill="#89774C"></path>
          <path d="M22.1047 47.2426H23.3915V35.9835H20.3124V37.1324H17.0496V32.8585H33.7315V37.1324H30.4227V35.9835H27.3896V47.2426H28.6764V49.7702H22.1047V47.2426Z" fill="#89774C"></path>
          <path d="M44.9907 47.2426H46.4154L45.8639 46.0018H37.7757L37.2242 47.2426H38.6029V49.7702H31.8933V47.2426H33.3179L38.6029 35.386H36.9944V32.8585H43.8418L50.2297 47.2426H51.7003V49.7702H44.9907V47.2426ZM39.2003 42.8309H44.4852L41.8198 36.8566L39.2003 42.8309Z" fill="#89774C"></path>
          <path d="M52.022 32.8585H60.6157C62.1782 32.8125 63.6948 33.364 64.7977 34.421C65.9007 35.5239 66.4981 36.9945 66.4062 38.557C66.4521 40.0735 65.8547 41.5901 64.7977 42.6471C63.6488 43.7041 62.1323 44.3015 60.6157 44.2096H57.3529V47.1967H58.6396V49.7243H52.022V47.1967H53.3087V35.386H52.022V32.8585ZM57.3529 35.9835V41.0846H60.2021C60.7995 41.0846 61.397 40.8548 61.8106 40.3493C62.2242 39.8438 62.454 39.2004 62.454 38.511C62.4999 37.8217 62.2701 37.1783 61.8106 36.6728C61.397 36.2132 60.7995 35.9375 60.2021 35.9375L57.3529 35.9835Z" fill="#89774C"></path>
          <path d="M70.0827 35.0184C71.7371 33.4099 73.8511 32.6287 76.4705 32.6287C79.09 32.6287 81.25 33.4099 82.8584 35.0184C84.5128 36.6269 85.34 38.6949 85.34 41.2684C85.34 43.8419 84.5128 45.9559 82.8584 47.5184C81.204 49.1269 79.09 49.9081 76.4705 49.9081C73.8511 49.9081 71.6911 49.1269 70.0827 47.5184C68.4283 45.9099 67.6011 43.8419 67.6011 41.2684C67.6011 38.7408 68.4283 36.6269 70.0827 35.0184ZM73.0239 45.2666C74.7242 47.1967 77.6194 47.3805 79.5496 45.7261C79.6875 45.5883 79.8253 45.4504 79.9632 45.3125C80.8823 44.2096 81.3878 42.7849 81.2959 41.3144C81.3419 39.8438 80.8823 38.4651 79.9632 37.3162C78.2628 35.386 75.3676 35.2022 73.4375 36.9026C73.2996 37.0405 73.1617 37.1783 73.0239 37.3162C71.1856 39.6599 71.1856 42.9228 73.0239 45.2666Z" fill="#89774C"></path>
          <path d="M96.0477 37.1324V35.9835H91.7279V47.2426H93.0146V49.7702H86.397V47.2426H87.6837V35.386H86.397V32.8585H99.3565V37.1324H96.0477Z" fill="#89774C"></path>
          <path d="M102.849 35.0184C104.504 33.4099 106.618 32.6287 109.237 32.6287C111.857 32.6287 114.017 33.4099 115.625 35.0184C117.279 36.6269 118.107 38.6949 118.107 41.2684C118.107 43.8419 117.279 45.9559 115.625 47.5184C113.971 49.1269 111.857 49.9081 109.237 49.9081C106.618 49.9081 104.458 49.1269 102.849 47.5184C101.195 45.9099 100.368 43.8419 100.368 41.2684C100.414 38.7408 101.195 36.6269 102.849 35.0184ZM105.79 45.2666C107.491 47.1967 110.386 47.3805 112.316 45.7261C112.454 45.5883 112.592 45.4504 112.73 45.3125C113.649 44.2096 114.154 42.7849 114.063 41.3144C114.108 39.8438 113.649 38.4651 112.73 37.3162C111.029 35.386 108.134 35.2022 106.204 36.9026C106.066 37.0405 105.928 37.1783 105.79 37.3162C103.952 39.6599 103.952 42.9228 105.79 45.2666Z" fill="#89774C"></path>
          <path d="M138.006 47.2427H139.292V35.9835H134.237C134.283 38.9706 134.145 41.9577 133.778 44.9449C133.456 46.875 132.996 48.2077 132.307 48.8971C131.618 49.5864 130.561 49.954 129.136 49.954C127.895 50 126.7 49.5404 125.781 48.7132L127.941 46.5533C128.171 46.7371 128.447 46.829 128.768 46.829C128.952 46.829 129.136 46.7831 129.32 46.6452C129.504 46.4154 129.642 46.1857 129.688 45.9099C129.825 45.4963 129.917 45.0368 129.963 44.6232C130.009 44.1176 130.055 43.4283 130.101 42.4632C130.147 41.5441 130.147 40.5331 130.193 39.4761C130.193 38.4191 130.239 37.0404 130.239 35.386H128.952V32.8585H144.623V35.386H143.336V47.2427H144.623V49.7702H138.006V47.2427Z" fill="#89774C"></path>
          <path d="M145.726 32.8585H152.344V35.386H151.057V38.6489H154.458C155.974 38.6029 157.445 39.1544 158.548 40.2114C160.662 42.4632 160.662 45.9559 158.548 48.2077C157.445 49.2647 155.974 49.8162 154.458 49.7702H145.726V47.2426H147.013V35.386H145.726V32.8585ZM153.998 46.5993C154.596 46.5993 155.147 46.3695 155.515 45.9099C155.928 45.4504 156.112 44.807 156.112 44.2096C156.158 43.5662 155.928 42.9688 155.515 42.4632C155.147 42.0037 154.596 41.7739 153.998 41.7739H151.011V46.5993H153.998Z" fill="#89774C"></path>
          <path d="M161.213 32.8585H170.22C171.415 32.8125 172.61 33.2261 173.529 34.0533C174.357 34.8346 174.816 35.9375 174.77 37.0864C174.77 38.7408 174.219 39.9816 173.07 40.7629C173.897 41.0386 174.632 41.636 175.092 42.3713C175.597 43.1985 175.873 44.2096 175.827 45.1746C175.873 46.4155 175.368 47.6103 174.448 48.4835C173.483 49.3566 172.197 49.8162 170.864 49.7702H161.213V47.2427H162.5V35.386H161.213V32.8585ZM166.544 35.9835V39.3842H168.934C169.439 39.4302 169.899 39.2463 170.266 38.9246C170.91 38.2353 170.91 37.1783 170.266 36.489C169.899 36.1673 169.439 35.9835 168.934 36.0294L166.544 35.9835ZM169.439 46.5993C170.037 46.6452 170.588 46.4154 171.002 46.0018C171.783 45.1746 171.783 43.8879 171.002 43.0607C170.588 42.6471 169.991 42.4632 169.439 42.4632H166.544V46.5533L169.439 46.5993Z" fill="#89774C"></path>
          <path d="M179.458 35.0184C181.112 33.4099 183.226 32.6287 185.846 32.6287C188.465 32.6287 190.625 33.4099 192.233 35.0184C193.888 36.6269 194.715 38.6949 194.715 41.2684C194.715 43.8419 193.888 45.9559 192.233 47.5184C190.579 49.1269 188.465 49.9081 185.846 49.9081C183.226 49.9081 181.066 49.1269 179.458 47.5184C177.803 45.9099 176.976 43.8419 176.976 41.2684C176.976 38.7408 177.803 36.6269 179.458 35.0184ZM182.399 45.2666C184.099 47.1967 186.994 47.3805 188.925 45.7261C189.062 45.5883 189.2 45.4504 189.338 45.3125C190.257 44.2096 190.763 42.7849 190.671 41.3144C190.717 39.8438 190.257 38.4651 189.338 37.3162C187.638 35.386 184.743 35.2022 182.812 36.9026C182.675 37.0405 182.537 37.1783 182.399 37.3162C180.561 39.6599 180.561 42.9228 182.399 45.2666Z" fill="#89774C"></path>
          <path d="M195.772 32.8585H204.779C205.974 32.8125 207.169 33.2261 208.042 34.0533C208.869 34.8346 209.329 35.9375 209.283 37.0864C209.283 38.7408 208.732 39.9816 207.583 40.7629C208.41 41.0386 209.145 41.636 209.605 42.3713C210.11 43.1985 210.386 44.2096 210.34 45.1746C210.386 46.4155 209.88 47.6103 208.961 48.4835C207.996 49.3566 206.71 49.8162 205.377 49.7702H195.726V47.2427H197.013V35.386H195.772V32.8585ZM201.103 35.9835V39.3842H203.493C203.998 39.4302 204.458 39.2463 204.825 38.9246C205.469 38.2353 205.469 37.1783 204.825 36.489C204.458 36.1673 203.998 35.9835 203.493 36.0294L201.103 35.9835ZM203.998 46.5993C204.596 46.6452 205.147 46.4154 205.561 46.0018C206.342 45.1746 206.342 43.8879 205.561 43.0607C205.147 42.6471 204.55 42.4632 203.998 42.4632H201.103V46.5533L203.998 46.5993Z" fill="#89774C"></path>
          <path d="M223.851 47.2426H225.276L224.724 45.9559H216.636L216.085 47.1967H217.463V49.7243H210.754V47.1967H212.178L217.463 35.386H215.855V32.8585H222.702L229.09 47.2426H230.561V49.7702H223.805V47.2426H223.851ZM218.107 42.8309H223.346L220.68 36.8566L218.107 42.8309Z" fill="#89774C"></path>
        </svg>